<?xml version="1.0" encoding="utf-8"?>
<!-- Generator: Adobe Illustrator 22.1.0, SVG Export Plug-In . SVG Version: 6.00 Build 0)  -->
<svg version="1.1" id="Layer_1" xmlns="http://www.w3.org/2000/svg" xmlns:xlink="http://www.w3.org/1999/xlink" x="0px" y="0px"
	 viewBox="0 0 174.9 174.9" style="enable-background:new 0 0 174.9 174.9;" xml:space="preserve">
<style type="text/css">
	.st0{fill:#0F0F0F;}
	.st1{fill:#040304;}
	.st2{fill:#284EA2;}
	.st3{fill:none;stroke:#0F0F0F;}
	.st4{fill:#FFE32C;}
	.st5{fill:#FFFFFF;stroke:#000000;}
	.st6{fill:none;stroke:#000000;}
	.st7{fill:none;}
</style>
<path class="st0" d="M78.7,80.4V80h0.4v0.4H78.7 M24.9,80.4h-0.4l0.1-0.4l0.4,0.1l-0.4-0.1c3.9-27.5,26.1-49.3,54.1-53.4l0.4-0.1
	v0.4V80h-0.4v0.4H24.9 M72.2,80.1l2.6,0.1l-0.6-0.6h4.1v-10l0.4,0.4l0.1-43.2l-6.7,1.3v0.5c-1.7,0.4-3.4,1-5.1,1.5v-0.6l-7.7,3.2
	v0.6c-1.6,0.8-3.2,1.7-4.7,2.6v-0.6l-6.9,4.8l0.4,0.4c-12,9.6-20.4,23.4-22.7,39.1h20.7V80h8.5v-0.3h4.7V80H67v-0.3h5.1V80.1"/>
<polyline class="st1" points="47.7,40.2 48.1,40.6 47.7,40.2 "/>
<polyline points="47.7,40.2 54.6,35.3 54.6,46.9 47.7,40.2 "/>
<polyline points="46.1,80 46.1,52.6 54.6,60.8 54.6,80 46.1,80 "/>
<polyline class="st0" points="72.2,80.1 72.2,77.7 74.8,80.2 72.2,80.1 "/>
<polyline class="st0" points="72.2,63.7 72.2,28.1 78.8,26.7 78.7,70 72.2,63.7 "/>
<polyline points="59.4,51.4 59.4,32.8 67,29.5 67,58.8 59.4,51.4 "/>
<polyline points="59.4,80 59.4,65.4 67,72.8 67,80 59.4,80 "/>
<path d="M54.6,46.9v14l4.7,4.5v-14 M54.6,46.9"/>
<path d="M67,58.8v14l5.1,4.9v-14 M67,58.8"/>
<polyline points="46.1,52.6 46.1,41.9 40.5,47.1 46.1,52.6 "/>
<polyline class="st2" points="96.9,57.8 97.9,57.8 97.9,79.7 96.8,79.7 96.9,57.8 "/>
<path class="st3" d="M96.8,97.4v53.1c27.9-4.1,49.9-25.7,53.8-53.1H96.8L96.8,97.4z"/>
<polyline class="st4" points="103.3,99.7 103.3,97.3 100.7,97.2 103.3,99.7 "/>
<polyline class="st5" points="103.3,100.4 103.3,98 100.7,97.9 103.3,100.4 "/>
<g>
	<path d="M103.3,149.1c1.7-0.4,3.5-0.9,5.1-1.5v-29l-5.1-4.9V149.1z"/>
	<path d="M116.2,144.4c1.6-0.8,3.2-1.7,4.7-2.6v-11.3l-4.7-4.5V144.4z"/>
	<path d="M108.5,104.6v-7.2h7.7V112l4.7,4.5V97.4h8.5v27.3l5.6,5.5c8.2-9,13.8-20.3,15.6-32.8H96.8v10l6.5,6.3v-14L108.5,104.6z"/>
	<polygon points="108.5,104.6 108.5,118.6 116.2,125.9 116.2,112 	"/>
	<path d="M129.4,135.5v-10.7l-8.5-8.2v14l6.8,6.6c2.4-2,4.7-4.1,6.9-6.3L129.4,135.5z"/>
</g>
<path class="st6" d="M150.6,79.9c-3.9-27.4-25.9-49.1-53.8-53.1v53.1H150.6L150.6,79.9z"/>
<path class="st3" d="M96.8,97.4v53.1c27.9-4.1,49.9-25.7,53.8-53.1H96.8L96.8,97.4z"/>
<path d="M115.9,76.4c0-0.7,0.3-1.4,0.7-1.9c0.1-0.3,0.1-0.5,0.1-0.7c-0.2-0.4-0.5-0.5-0.8-0.6c-0.6,0.5-1.4,0.9-2.4,0.9
	c-1.9,0-3.5-1.4-3.5-3.2c0-1.4,1-2.6,2.3-3l0.1-0.1c0,0,0.1,0,0.2,0c0.3-0.1,0.6-0.1,0.9-0.1c0.3,0,0.6,0.1,0.9,0.1
	c0.1,0,0.3,0,0.4,0.1c0.5,0.2,0.9,0.5,1.2,0.8c0.9,0.5,1.3,0.3,1.3,0.3s0-8,0-8.4c0-0.4-0.5-1-0.9-1.1c-0.4-0.1-9.3,0.1-9.3,0.1
	s0.1,1,0.3,1.4c0.1,0.1,0.2,0.2,0.3,0.4c0.9,0.6,1.4,1.5,1.4,2.6c0,1.8-1.6,3.2-3.5,3.2c-1.9,0-3.5-1.4-3.5-3.2
	c0-0.6,0.2-1.1,0.5-1.6l0,0c0.2-0.5,0.6-0.5,0.6-1.2c0-0.7-0.4-0.8-0.8-0.9l-0.2,0c-0.5,0.3-1.1,0.4-1.7,0.4c-1.9,0-3.5-1.4-3.5-3.2
	c0-0.1,0-0.3,0-0.4h22v-0.2H96.9v23h22.4v-0.2C117.4,79.5,115.9,78.1,115.9,76.4z"/>
<path d="M140.5,57c0,0.1,0,0.3,0,0.4c0,1.8-1.5,3.2-3.3,3.2c-0.6,0-1.2-0.2-1.6-0.4l-0.2,0c-0.4,0.1-0.7,0.3-0.7,0.9
	c0,0.7,0.4,0.7,0.6,1.2l0,0c0.3,0.5,0.5,1,0.5,1.6c0,1.8-1.5,3.2-3.3,3.2c-1.8,0-3.3-1.4-3.3-3.2c0-1.1,0.5-2,1.4-2.6
	c0.1-0.1,0.2-0.2,0.2-0.4c0.2-0.4,0.3-1.4,0.3-1.4s-8.6-0.2-9-0.1c-0.4,0.1-0.9,0.7-0.9,1.1c0,0.4,0,8.4,0,8.4s0.4,0.2,1.3-0.3
	c0.3-0.3,0.7-0.6,1.2-0.8c0.1-0.1,0.2-0.1,0.3-0.1c0.3-0.1,0.6-0.1,0.9-0.1c0.3,0,0.6,0,0.8,0.1l0.2,0l0.1,0.1
	c1.3,0.4,2.3,1.6,2.3,3c0,1.8-1.5,3.2-3.3,3.2c-0.9,0-1.7-0.3-2.3-0.9c-0.3,0-0.6,0.2-0.8,0.6c-0.1,0.2,0,0.4,0.1,0.7
	c0.4,0.5,0.6,1.2,0.6,1.9c0,1.7-1.4,3.2-3.2,3.2V57H140.5"/>
<g>
	<polygon points="119.1,35.9 119.1,35.9 119.1,36 	"/>
	<path d="M139.9,53.2l-1.5-2l-1.6-2l-1.1-1.1l0.1-0.1l-3.7-3.9l-4.5-3.9l-6.2-4.4l-2.5-1.5l0,0.9c1.7,0.1,3.1,1.5,3.1,3.2
		c0,0.7-0.2,1.4-0.6,1.9c-0.1,0.3-0.1,0.5-0.1,0.7c0.2,0.4,0.5,0.5,0.8,0.6c0.6-0.5,1.4-0.9,2.3-0.9c1.9,0,3.4,1.4,3.4,3.2
		c0,1.4-1,2.6-2.3,3l-0.1,0.1c0,0-0.1,0-0.2,0c-0.3,0.1-0.5,0.1-0.8,0.1c-0.3,0-0.6-0.1-0.9-0.1c-0.1,0-0.2,0-0.4-0.1
		c-0.5-0.2-0.9-0.5-1.2-0.8c-0.9-0.5-1.3-0.3-1.3-0.3s0,8,0,8.4c0,0.4,0.5,1,0.9,1.1c0.4,0.1,9.1-0.1,9.1-0.1s-0.1-1-0.3-1.4
		c-0.1-0.1-0.1-0.2-0.2-0.4c-0.8-0.6-1.4-1.5-1.4-2.6c0-1.8,1.5-3.2,3.4-3.2c1.9,0,3.4,1.4,3.4,3.2c0,0.6-0.2,1.1-0.5,1.6l0,0.1
		c-0.2,0.5-0.6,0.5-0.6,1.2c0,0.7,0.3,0.8,0.8,0.9l0.2,0c0.5-0.3,1.1-0.4,1.7-0.4c1.9,0,3.4,1.4,3.4,3.2c0,0.1,0,0.3,0,0.4h-4.2
		l0.8,0.2l3.1-0.2h2.6L139.9,53.2z"/>
</g>
<path d="M97.1,57.8c0-0.1,0-0.3,0-0.4c0-1.8,1.5-3.2,3.5-3.2c0.6,0,1.2,0.2,1.7,0.4l0.2,0c0.4-0.1,0.8-0.3,0.8-0.9
	c0-0.7-0.4-0.7-0.6-1.2l0,0c-0.3-0.5-0.5-1-0.5-1.6c0-1.8,1.5-3.2,3.5-3.2c1.9,0,3.5,1.4,3.5,3.2c0,1.1-0.6,2-1.4,2.6
	c-0.1,0.1-0.2,0.2-0.3,0.4c-0.2,0.4-0.3,1.4-0.3,1.4s8.9,0.2,9.3,0.1c0.4-0.1,0.9-0.7,0.9-1.1c0-0.4,0-8.4,0-8.4s-0.4-0.2-1.3,0.3
	c-0.3,0.3-0.8,0.6-1.2,0.8c-0.1,0.1-0.2,0.1-0.4,0.1c-0.3,0.1-0.6,0.1-0.9,0.1c-0.3,0-0.6,0-0.9-0.1c-0.1,0-0.1,0-0.2,0l-0.1-0.1
	c-1.4-0.4-2.3-1.6-2.3-3c0-1.8,1.5-3.2,3.5-3.2c0.9,0,1.7,0.3,2.4,0.9c0.3,0,0.6-0.2,0.8-0.6c0.1-0.2,0-0.4-0.1-0.7
	c-0.4-0.5-0.7-1.2-0.7-1.9c0-1.7,1.5-3.2,3.3-3.2v22.7H97.1"/>
<path d="M0,87.4C0,39.1,39.1,0,87.4,0v3.7c-23.1,0-44,9.4-59.2,24.5C13.1,43.4,3.7,64.3,3.7,87.4c0,23.1,9.4,44,24.5,59.2
	c15.2,15.1,36.1,24.5,59.2,24.5c23.1,0,44-9.4,59.2-24.5c15.1-15.1,24.5-36.1,24.5-59.2c0-23.1-9.4-44-24.5-59.2
	C131.5,13.1,110.5,3.7,87.4,3.7V0c48.3,0,87.4,39.1,87.4,87.4c0,48.3-39.1,87.4-87.4,87.4V173v1.9C39.1,174.9,0,135.7,0,87.4
	 M87.4,1.9V0V1.9"/>
<rect class="st7" width="174.9" height="174.9"/>
<path d="M21.7,65c1.1,0.3,1.7,0.9,2,1.9c0.3,1,0.2,2.4-0.2,4.1l-1,4.2c-0.1,0.5-0.2,0.8-0.3,0.9c-0.1,0.1-0.3,0.1-0.5,0.1
	c-0.2,0-0.3-0.1-0.3-0.2c0-0.1-0.1-0.3-0.1-0.5l0-0.1l0-0.1c0-0.1,0-0.2-0.1-0.2l-0.2-0.2l-0.1-0.1l-0.1,0L13.6,73l-0.1,0l-0.1,0
	c-0.1,0-0.2,0-0.2,0C13,73,13,73,12.9,73.1l-0.1,0.1l-0.1,0.1c-0.1,0.1-0.2,0.2-0.3,0.3c-0.1,0.1-0.2,0.1-0.4,0.1
	c-0.2-0.1-0.4-0.2-0.5-0.4c-0.1-0.2-0.1-0.6,0-1.1l0.7-3.1c0.3-1.2,0.8-2.1,1.5-2.8c0.7-0.7,1.4-0.9,2.3-0.7c0.5,0.1,0.8,0.3,1,0.5
	c0.2,0.2,0.3,0.5,0.5,0.8l0,0.1l0,0.1c0.1-0.1,0.2-0.3,0.4-0.5c0.1-0.2,0.3-0.4,0.5-0.6c0.3-0.3,0.8-0.6,1.3-0.9
	C20.4,64.9,21,64.8,21.7,65L21.7,65L21.7,65z M16.2,70.6c0.1-0.1,0.1-0.2,0.2-0.4c0.1-0.5,0.1-0.9-0.1-1.2c-0.2-0.3-0.5-0.4-0.8-0.5
	c-0.4-0.1-0.8-0.1-1,0.1c-0.3,0.2-0.5,0.5-0.6,0.9c-0.1,0.3-0.1,0.4,0,0.5c0.1,0.1,0.2,0.1,0.3,0.2l1.6,0.4
	C16,70.7,16.1,70.7,16.2,70.6L16.2,70.6z M21.8,71.9c0.1-0.1,0.2-0.4,0.4-0.8c0.2-0.8,0.1-1.5-0.2-1.9c-0.3-0.4-0.7-0.7-1.2-0.9
	l-0.1,0l-0.1,0c-0.6-0.1-1.2-0.1-1.7,0.2c-0.6,0.3-0.9,0.8-1.1,1.5c-0.1,0.5-0.2,0.9-0.1,1c0.1,0.1,0.2,0.2,0.4,0.2l0,0l3.3,0.8
	C21.5,72,21.6,72,21.8,71.9"/>
<path d="M17.1,55.2l0.8-1.7c0.1-0.1,0.1-0.2,0.2-0.2c0.1,0,0.2-0.1,0.3-0.1l0.2,0l0.1,0l8.9,0.7c0.1,0,0.1,0,0.2,0l0.2,0
	c0.1,0,0.3,0,0.4,0c0.1,0,0.2-0.1,0.4-0.2l0,0l0,0c0.1-0.1,0.3-0.2,0.4-0.3c0.1-0.1,0.3-0.1,0.5,0c0.2,0.1,0.3,0.2,0.3,0.4
	s-0.1,0.5-0.3,0.9l-1.3,2.9c-0.1,0.2-0.2,0.3-0.3,0.4c-0.1,0.1-0.3,0.1-0.5,0c-0.1-0.1-0.2-0.1-0.2-0.2c0-0.1,0-0.2-0.1-0.3l0,0l0,0
	l0,0l0,0l0,0l0,0l0,0c0-0.1,0-0.2,0-0.2c0-0.1-0.1-0.1-0.1-0.2l0,0l0,0c-0.1,0-0.2,0-0.3,0c-0.1,0-0.3,0-0.4,0c-0.3,0-0.5,0-0.8,0.1
	c-0.2,0.1-0.4,0.1-0.5,0.3l-1.2,2.7c-0.1,0.2-0.1,0.4,0.1,0.6c0.1,0.2,0.3,0.4,0.4,0.6c0.1,0.1,0.2,0.2,0.3,0.3
	c0.1,0.1,0.2,0.2,0.2,0.2l0,0l0,0l0.2,0l0.2-0.1l0,0l0,0l0,0l0,0l0,0l0,0c0.1-0.1,0.2-0.1,0.2-0.1c0.1,0,0.2,0,0.3,0
	c0.2,0.1,0.3,0.2,0.3,0.4c0,0.2,0,0.3-0.1,0.5l-1.2,2.5c-0.1,0.3-0.2,0.4-0.3,0.5c-0.1,0.1-0.3,0-0.5,0c-0.2-0.1-0.3-0.2-0.3-0.4
	c0-0.2,0-0.4,0-0.6l0-0.1l0-0.1c0-0.2,0-0.3-0.1-0.5c-0.1-0.1-0.2-0.2-0.3-0.4l-0.1-0.1L23.5,63l-6.1-7l-0.1-0.1l-0.1-0.1
	c-0.1-0.1-0.1-0.2-0.1-0.3C17,55.4,17,55.3,17.1,55.2L17.1,55.2L17.1,55.2z M23.5,57.1c0.1-0.2,0.1-0.3,0.1-0.4
	c-0.1-0.1-0.1-0.1-0.2-0.2c-0.1,0-0.1-0.1-0.2-0.1l-0.2,0l-0.1,0l-0.1,0l-3-0.2l2.1,2.3l0,0l0,0l0.1,0.1c0,0,0.1,0.1,0.2,0.1
	c0.1,0.1,0.2,0.1,0.3,0.1c0.1,0,0.2-0.1,0.3-0.3L23.5,57.1"/>
<path d="M25,44.8l5.8,4.1c0.3,0.2,0.5,0.3,0.6,0.2c0.2,0,0.3-0.2,0.4-0.3l0.5-0.6c0.4-0.5,0.6-1,0.7-1.5c0.1-0.5,0.2-1,0.2-1.4
	c0-0.4,0-0.8,0-1.1c0-0.3,0-0.5,0.1-0.7c0.1-0.1,0.2-0.2,0.3-0.2c0.1,0,0.3,0,0.4,0.1c0.1,0,0.1,0.1,0.2,0.2
	c0.1,0.1,0.1,0.2,0.1,0.3l0.9,2.5c0.1,0.1,0.1,0.3,0.1,0.4c0,0.1,0,0.3-0.1,0.4l-0.1,0.1L35,47.2l-0.1,0l-0.1,0
	c-0.1,0-0.2,0.1-0.3,0.2c-0.1,0.1-0.2,0.2-0.3,0.3l-3.4,4.9c-0.2,0.3-0.4,0.5-0.6,0.5c-0.2,0-0.3,0-0.5-0.2
	c-0.2-0.1-0.2-0.3-0.2-0.5c0-0.2,0-0.4,0.1-0.6c0.1-0.1,0.1-0.2,0-0.3c0-0.1-0.1-0.2-0.1-0.2l-0.1-0.1l-0.1,0l-6-4.2l-0.1,0l-0.1,0
	c-0.1,0-0.2,0-0.3,0c-0.1,0-0.2,0-0.3,0.1l-0.1,0.1l-0.1,0.1c-0.1,0.1-0.3,0.1-0.4,0.2c-0.1,0-0.2,0-0.4-0.1
	c-0.2-0.1-0.3-0.3-0.3-0.4c0-0.1,0.1-0.4,0.5-0.9l1.7-2.4c0.3-0.4,0.5-0.6,0.6-0.7c0.1,0,0.3,0,0.5,0.1c0.1,0.1,0.2,0.2,0.2,0.3
	c0,0.1,0,0.3,0,0.4l0,0.1l0,0.2c0,0.1,0,0.2,0,0.2c0,0.1,0.1,0.2,0.1,0.2L25,44.8L25,44.8L25,44.8"/>
<path d="M38.6,39.7l-5.4-5.5l-0.7,0.7c-0.4,0.4-0.6,0.8-0.8,1.2c-0.1,0.4-0.2,0.8-0.2,1.1c0,0.3,0,0.5,0,0.7c0,0.2,0,0.4,0,0.5
	l0,0.1l-0.1,0.1c-0.1,0.1-0.2,0.1-0.3,0.1c-0.1,0-0.2-0.1-0.3-0.2c-0.1-0.1-0.1-0.1-0.2-0.2c0-0.1-0.1-0.2-0.1-0.3l-0.9-2.4
	c0-0.1-0.1-0.3,0-0.4c0-0.1,0.1-0.3,0.2-0.4l0.2-0.1c0.1,0,0.1,0,0.2-0.1l0,0l0,0c0.1,0,0.2,0,0.3-0.1c0.1,0,0.2-0.1,0.3-0.2
	l4.7-4.6c0.1-0.1,0.2-0.2,0.2-0.3c0-0.1,0.1-0.2,0.1-0.3l0,0v0l0.1-0.2l0.1-0.2c0.1-0.1,0.3-0.2,0.4-0.2c0.1,0,0.3,0,0.4,0.1
	l2.4,0.9c0.1,0,0.2,0.1,0.3,0.2c0.1,0.1,0.2,0.1,0.2,0.2c0.1,0.1,0.1,0.2,0.1,0.3c0,0.1,0,0.2-0.1,0.3l-0.1,0.1l-0.1,0.1
	c-0.1,0-0.3,0-0.5,0c-0.2,0-0.4,0-0.7,0c-0.3,0-0.7,0.1-1.1,0.2c-0.4,0.1-0.8,0.4-1.2,0.8l-0.7,0.7l5.4,5.5l0.1,0.1l0.1,0
	c0.1,0.1,0.2,0.1,0.3,0.1c0.1,0,0.2,0,0.3,0l0.1-0.1l0.1-0.1c0.2-0.1,0.3-0.1,0.4-0.1c0.1,0,0.2,0,0.3,0.1c0.1,0.2,0.2,0.3,0.2,0.5
	c0,0.2-0.2,0.4-0.6,0.8l-2.1,2.1c-0.4,0.4-0.6,0.5-0.8,0.6c-0.2,0-0.3,0-0.5-0.2c-0.1-0.1-0.1-0.2-0.1-0.3c0-0.1,0.1-0.3,0.1-0.4
	l0.1-0.1l0.1-0.1c0-0.1,0.1-0.2,0-0.3c0-0.1,0-0.2-0.1-0.3L38.6,39.7L38.6,39.7L38.6,39.7"/>
<path d="M43.5,25.8l4.4,5.9c0.1,0.1,0.2,0.2,0.3,0.3c0.1,0.1,0.2,0.1,0.4,0l0.1,0l0.1,0c0.2,0,0.3-0.1,0.5-0.1
	c0.1,0,0.2,0.1,0.3,0.2c0.1,0.2,0.2,0.3,0.1,0.5c0,0.1-0.3,0.4-0.7,0.7l-2.3,1.7c-0.4,0.3-0.7,0.5-0.8,0.4c-0.1,0-0.3-0.1-0.4-0.3
	c-0.1-0.1-0.1-0.2-0.1-0.4c0-0.1,0.1-0.3,0.2-0.4l0.1-0.1l0.1-0.1c0.1-0.1,0.1-0.2,0.1-0.4c0-0.1,0-0.3-0.1-0.4l-4.4-5.9
	c-0.1-0.1-0.2-0.2-0.3-0.2c-0.1,0-0.3,0-0.4,0l-0.1,0l-0.1,0c-0.2,0-0.3,0-0.4,0c-0.1,0-0.2-0.1-0.3-0.2c-0.1-0.2-0.2-0.3-0.2-0.5
	c0-0.2,0.2-0.4,0.6-0.7l2.3-1.8c0.4-0.3,0.7-0.4,0.9-0.4c0.2,0,0.3,0.1,0.4,0.3c0.1,0.1,0.1,0.2,0.1,0.4c0,0.1-0.1,0.3-0.2,0.4
	L43.5,25l-0.1,0.1c0,0.1-0.1,0.1-0.1,0.2c0,0.1,0,0.2,0,0.2L43.5,25.8L43.5,25.8L43.5,25.8"/>
<path d="M57.4,28.1c0,0.1-0.1,0.1-0.2,0.2c-0.1,0-0.1,0.1-0.2,0.1c-0.1,0-0.2,0-0.2-0.1L51.2,24l0.9,4.9l0,0.1l0,0.1
	c0,0.1,0.1,0.1,0.2,0.1c0.1,0,0.1,0,0.2,0h0.1l0,0c0.1,0,0.2,0,0.3,0.1c0.1,0,0.2,0.1,0.3,0.3c0.1,0.2,0.1,0.3,0,0.5
	c-0.1,0.1-0.2,0.3-0.4,0.4l-2.2,1.1l-0.1,0l-0.1,0c-0.1,0-0.3,0.1-0.4,0c-0.1,0-0.2-0.1-0.3-0.3c-0.1-0.2-0.1-0.4-0.1-0.5
	c0.1-0.1,0.1-0.2,0.2-0.3l0-0.1l0-0.1c0.1-0.1,0.1-0.2,0.2-0.3c0.1-0.1,0.1-0.2,0.1-0.4l-1.4-7.6l0-0.1l0-0.1
	c-0.1-0.1-0.1-0.2-0.2-0.2c-0.1,0-0.2-0.1-0.3-0.1h0c-0.1,0-0.3,0-0.4-0.1c-0.1,0-0.2-0.1-0.3-0.3c-0.1-0.2-0.1-0.4,0-0.6
	c0.1-0.2,0.3-0.3,0.6-0.5l2.3-1.2l0.1,0l0.1,0c0.2-0.1,0.4-0.1,0.7-0.1c0.2,0,0.4,0.1,0.5,0.3c0.1,0.2,0.1,0.3,0.1,0.4
	c0,0.1,0,0.2-0.1,0.3l0,0.1l0,0.1l-0.1,0.2l0,0.2l0.1,0.1l0.1,0.1l3.9,3l0-4.9l0-0.1l0-0.1c0-0.1-0.1-0.1-0.2-0.2
	c-0.1,0-0.2-0.1-0.3-0.1l-0.1,0l-0.1,0c-0.1,0-0.3-0.1-0.4-0.1c-0.1,0-0.2-0.1-0.3-0.3c-0.1-0.2-0.1-0.4-0.1-0.6
	c0.1-0.2,0.3-0.4,0.7-0.6l2.2-1.1c0.4-0.2,0.7-0.3,0.9-0.2c0.2,0,0.3,0.2,0.4,0.4c0.1,0.2,0.1,0.3,0.1,0.5c0,0.1-0.1,0.3-0.1,0.4
	l0,0.1l0,0.1c-0.1,0.1-0.1,0.2-0.1,0.3c0,0.1,0,0.2,0,0.3l0,0l0,0.1l5,5.7c0.1,0.1,0.2,0.2,0.3,0.2c0.1,0,0.2,0,0.4,0l0,0l0,0
	c0.1,0,0.3,0,0.4,0c0.1,0,0.2,0.1,0.3,0.3c0.1,0.2,0.1,0.4,0,0.5c-0.1,0.2-0.3,0.3-0.8,0.6l-2.4,1.2c-0.5,0.2-0.8,0.4-1,0.4
	c-0.2,0-0.3-0.1-0.4-0.3c-0.1-0.1-0.1-0.3,0-0.4c0.1-0.1,0.1-0.2,0.2-0.3l0.1-0.1l0.1-0.1c0.1-0.1,0.1-0.1,0.2-0.2
	c0-0.1,0-0.1,0-0.2c-0.1-0.1-0.2-0.3-0.5-0.7c-0.3-0.4-0.7-0.8-1-1.2l-0.1-0.1l-0.1-0.1c-0.4-0.5-0.9-1.1-1.6-1.8l-0.1,7
	C57.5,27.9,57.5,28,57.4,28.1"/>
<path d="M64.3,19.4c0-0.2-0.1-0.4-0.1-0.6c0-0.2,0-0.4-0.1-0.6c0-1.3,0.3-2.7,1.2-4c0.8-1.3,2.1-2.2,3.8-2.6
	c1.7-0.4,3.2-0.2,4.5,0.6c1.3,0.8,2.3,1.8,2.8,3c0.1,0.2,0.2,0.4,0.3,0.6c0.1,0.2,0.1,0.4,0.2,0.6c0.4,1.4,0.2,2.8-0.6,4
	c-0.7,1.2-2.2,2.1-4.4,2.7c-2.2,0.5-3.9,0.4-5.2-0.4C65.4,21.9,64.6,20.8,64.3,19.4L64.3,19.4L64.3,19.4z M67.8,18.4
	c0.3,1.4,0.9,2.3,1.6,2.8c0.7,0.5,1.4,0.6,2.1,0.4c0.7-0.2,1.3-0.6,1.7-1.4c0.4-0.7,0.5-1.8,0.1-3.2c-0.3-1.4-0.9-2.5-1.6-3.2
	c-0.7-0.8-1.5-1-2.3-0.8c-0.8,0.2-1.4,0.8-1.7,1.8C67.4,15.8,67.4,17,67.8,18.4L67.8,18.4"/>
<path d="M87.2,17c0,0,0.1,0.1,0.3,0.4c0.2,0.2,0.5,0.5,0.7,0.8c0.2,0.2,0.5,0.5,0.7,0.7c0.2,0.2,0.3,0.3,0.4,0.4l0.2,0.1l0.2,0.1
	l0.1,0l0,0c0.1,0,0.2,0.1,0.3,0.2c0.1,0.1,0.2,0.2,0.2,0.4c0,0.2,0,0.4-0.2,0.5c-0.1,0.1-0.4,0.2-0.9,0.2l-2.9,0.1
	c-0.5,0-0.8,0-1-0.1c-0.1-0.1-0.2-0.2-0.2-0.4c0-0.2,0-0.3,0.1-0.4c0.1-0.1,0.2-0.2,0.3-0.2c0.1,0,0.1-0.1,0.2-0.1
	c0.1,0,0.1-0.1,0.2-0.2c0-0.1-0.1-0.2-0.3-0.3c-0.1-0.1-0.3-0.3-0.4-0.4l0,0l-0.1,0c-0.2-0.2-0.5-0.4-0.8-0.7c-0.1,0-0.2,0-0.3,0
	c-0.1,0-0.2,0-0.3,0c-0.1,0-0.1,0-0.2,0c-0.1,0-0.2,0-0.2,0c-0.2,0-0.4,0-0.6,0c-0.2,0-0.4-0.1-0.5-0.1l0.1,1.4
	c0,0.1,0.1,0.3,0.1,0.4c0.1,0.1,0.2,0.2,0.3,0.2l0,0l0,0l0.1,0l0.1,0c0.1,0.1,0.3,0.1,0.4,0.2c0.1,0.1,0.2,0.2,0.2,0.3
	c0,0.2,0,0.4-0.2,0.5c-0.1,0.1-0.4,0.2-0.9,0.2l-2.9,0.1c-0.5,0-0.8,0-1-0.1c-0.1-0.1-0.2-0.2-0.2-0.4c0-0.2,0-0.3,0.1-0.4
	c0.1-0.1,0.2-0.2,0.4-0.2l0.1-0.1l0.1-0.1c0.1-0.1,0.2-0.1,0.3-0.2c0.1-0.1,0.1-0.2,0.1-0.3l0,0l0,0l-0.4-7.4l0-0.1l0-0.1
	c0-0.1-0.1-0.2-0.1-0.2c-0.1-0.1-0.1-0.1-0.2-0.2l-0.1-0.1l-0.1-0.1C78.3,11.1,78.1,11,78,11c-0.1-0.1-0.2-0.2-0.2-0.3
	c0-0.2,0.1-0.4,0.3-0.5c0.2-0.1,0.5-0.2,1.1-0.2l2.3-0.1c2.4-0.1,4.4,0.2,5.8,0.8c1.5,0.6,2.2,1.8,2.3,3.4c0,0.9-0.2,1.6-0.7,2
	C88.5,16.4,87.9,16.8,87.2,17L87.2,17L87.2,17z M81.9,11.8l0.2,3.8c0,0.4,0.2,0.6,0.5,0.7c0.3,0.1,0.6,0.1,1,0.1
	c0.2,0,0.3,0,0.5-0.1c0.2,0,0.4-0.1,0.6-0.2c0.4-0.1,0.7-0.4,1-0.8c0.3-0.4,0.4-0.9,0.4-1.7c0-0.9-0.3-1.5-0.7-1.9
	c-0.4-0.3-0.9-0.6-1.4-0.6c-0.2,0-0.4-0.1-0.5-0.1c-0.2,0-0.3,0-0.5,0c-0.4,0-0.7,0.1-0.9,0.1C82,11.4,81.9,11.5,81.9,11.8
	L81.9,11.8"/>
<path d="M102,18.8c0.2,0,0.3,0.1,0.3,0.2c0.1,0.1,0.1,0.3,0,0.4l0,0.1l0,0.1l-0.1,0.2l-0.1,0.2l-1.6,2c-0.1,0.1-0.1,0.2-0.2,0.2
	l-0.2,0.1l-0.2,0.1c-0.1,0-0.2,0-0.3,0c-0.1,0-0.1,0-0.2-0.1l-0.1-0.2l-0.1-0.1L99.4,22c-0.1-0.1-0.2-0.2-0.3-0.3
	c-0.1-0.1-0.3-0.1-0.5-0.2l-6.8-0.9c-0.5-0.1-0.8-0.1-0.9-0.2c-0.1-0.1-0.1-0.3-0.1-0.5c0-0.2,0.1-0.3,0.2-0.3
	c0.1-0.1,0.3-0.1,0.4-0.2l0.1,0l0.1,0c0.1,0,0.2-0.1,0.2-0.1c0.1-0.1,0.1-0.1,0.1-0.2l0-0.1l0-0.1l1-7.5c0-0.1,0-0.2,0-0.3
	c0-0.1-0.1-0.2-0.2-0.2l-0.1,0l-0.1,0c-0.2-0.1-0.3-0.2-0.4-0.3c-0.1-0.1-0.2-0.2-0.1-0.4c0-0.2,0.1-0.4,0.3-0.5
	c0.2-0.1,0.5-0.1,1,0l5.4,0.7c0.2,0,0.3,0,0.4,0c0.1,0,0.3-0.1,0.4-0.1c0.1,0,0.2-0.1,0.3-0.1c0.1,0,0.2,0,0.3,0
	c0.1,0,0.3,0.1,0.3,0.1c0.1,0.1,0.2,0.2,0.2,0.3l0,0.1l0,0.1l1,2.1c0.1,0.1,0.1,0.2,0.1,0.3c0,0.1,0,0.2,0,0.2
	c0,0.1-0.1,0.2-0.2,0.3c-0.1,0.1-0.2,0.1-0.4,0.1c-0.1,0-0.3-0.1-0.4-0.3c-0.1-0.2-0.3-0.4-0.6-0.6c-0.2-0.2-0.6-0.4-0.9-0.7
	c-0.4-0.2-0.9-0.4-1.5-0.4l-1-0.1c-0.6-0.1-0.9,0-1.1,0.1c-0.1,0.2-0.2,0.5-0.3,0.9l-0.1,0.6c-0.1,0.4,0,0.6,0.1,0.7
	c0.1,0.1,0.3,0.1,0.4,0.1l0.5,0c0.3,0,0.5,0,0.6,0c0.1-0.1,0.2-0.2,0.3-0.3l0,0l0,0c0.1-0.1,0.1-0.2,0.2-0.2
	c0.1-0.1,0.2-0.1,0.3-0.1c0.2,0,0.3,0.1,0.3,0.1c0.1,0.1,0.1,0.1,0.1,0.2l0,0l0,0.1l0,0.1l1.1,2.2c0,0.1,0.1,0.2,0.1,0.3
	c0,0.1,0,0.2,0,0.2c0,0.1-0.1,0.3-0.2,0.4c-0.1,0.1-0.3,0.1-0.4,0.1c-0.1,0-0.2,0-0.3-0.1c-0.1-0.1-0.2-0.1-0.3-0.2
	c-0.3-0.3-0.6-0.5-0.9-0.7c-0.3-0.2-0.7-0.3-1.1-0.4l-0.1,0l-0.1,0c-0.4-0.1-0.7,0-0.8,0c-0.1,0.1-0.2,0.3-0.3,0.8l-0.3,2.4
	c0,0.3,0,0.6,0.1,0.7c0.1,0.1,0.4,0.2,0.9,0.3l2.1,0.3c0.6,0.1,1.1,0.1,1.5,0c0.4-0.1,0.8-0.3,1.1-0.4c0.3-0.1,0.5-0.3,0.7-0.4
	c0.2-0.1,0.4-0.2,0.5-0.2L102,18.8L102,18.8L102,18.8"/>
<path d="M119.4,25.7c0,0.1-0.2,0.2-0.4,0.4c-0.2,0.2-0.5,0.3-0.9,0.5c-0.5,0.2-1.1,0.3-1.8,0.3c-0.7,0-1.6-0.2-2.6-0.6
	c-1.9-0.8-3.1-1.9-3.6-3.2c-0.5-1.4-0.5-2.7-0.2-3.9c0-0.1,0.1-0.2,0.1-0.3c0-0.1,0.1-0.2,0.1-0.3l0-0.1l0-0.1
	c0.6-1.3,1.6-2.3,3-2.9c1.4-0.7,3-0.7,4.6,0c0.4,0.2,0.8,0.3,1,0.5c0.3,0.2,0.5,0.3,0.6,0.5c0.2,0.1,0.3,0.3,0.4,0.4
	c0.1,0.1,0.2,0.2,0.3,0.2c0.1,0,0.2,0,0.3,0c0.1,0,0.2-0.1,0.2-0.1c0.1,0,0.2-0.1,0.2-0.1c0.1,0,0.2,0,0.3,0
	c0.2,0.1,0.3,0.1,0.3,0.2c0,0.1,0.1,0.2,0.1,0.3l-0.1,2.7c0,0.1,0,0.3,0,0.4c0,0.1-0.1,0.2-0.1,0.3c-0.1,0.1-0.1,0.2-0.2,0.3
	c-0.1,0.1-0.2,0.1-0.4,0l-0.2-0.1l-0.1-0.1l-0.1-0.2c0-0.1,0-0.1-0.1-0.2l-0.6-1.7c-0.1-0.1-0.1-0.2-0.2-0.4
	c-0.1-0.1-0.1-0.2-0.2-0.3c-0.1-0.2-0.3-0.4-0.5-0.6c-0.2-0.2-0.5-0.3-0.8-0.4c-0.2-0.1-0.3-0.1-0.5-0.1c-0.2,0-0.4-0.1-0.6-0.1
	c-0.6,0-1.2,0.2-1.9,0.6c-0.7,0.4-1.3,1.2-1.7,2.4c-0.5,1.1-0.6,2-0.3,2.8c0.2,0.7,0.6,1.3,1.1,1.7c0.2,0.1,0.4,0.3,0.5,0.4
	c0.2,0.1,0.4,0.2,0.5,0.3c0.5,0.2,0.9,0.3,1.3,0.3c0.4,0,0.8,0,1.1-0.1c0.3-0.1,0.6-0.1,0.8-0.2c0.2-0.1,0.4-0.1,0.6,0
	c0.2,0.1,0.4,0.2,0.4,0.4C119.5,25.5,119.4,25.6,119.4,25.7L119.4,25.7"/>
<path d="M121.7,23.7c0.1-0.1,0.2-0.3,0.3-0.5c0.1-0.2,0.3-0.3,0.4-0.5c0.9-0.9,2.2-1.6,3.7-1.9c1.5-0.3,3,0,4.5,1
	c1.5,1,2.4,2.2,2.7,3.7c0.3,1.5,0.2,2.9-0.2,4.1c-0.1,0.2-0.2,0.4-0.3,0.6c-0.1,0.2-0.2,0.4-0.3,0.5c-0.8,1.2-1.9,2-3.3,2.3
	c-1.4,0.3-3.1-0.2-5-1.4c-1.9-1.2-3-2.6-3.3-4C120.6,26.3,120.9,25,121.7,23.7L121.7,23.7L121.7,23.7z M124.8,25.6
	c-0.8,1.2-1.1,2.2-1,3c0.1,0.8,0.5,1.5,1.2,1.9c0.6,0.4,1.4,0.5,2.2,0.3c0.8-0.2,1.6-0.9,2.4-2.1c0.8-1.2,1.2-2.3,1.3-3.4
	c0.1-1.1-0.3-1.8-1-2.3c-0.7-0.5-1.5-0.5-2.5,0C126.4,23.6,125.6,24.4,124.8,25.6L124.8,25.6"/>
<path d="M139.3,31.2c-0.2,0.1-0.3,0.3-0.6,0.5c-0.2,0.2-0.5,0.4-0.7,0.6c-0.1,0.1-0.3,0.3-0.4,0.4c-0.2,0.1-0.3,0.3-0.5,0.4
	c-0.4,0.3-0.7,0.7-1.1,1c-0.3,0.3-0.6,0.6-0.8,0.8l0,0l0,0c-0.4,0.5-0.8,1-0.9,1.6c-0.2,0.6,0.1,1.2,0.8,1.9c0.7,0.7,1.3,1,1.9,0.9
	c0.5-0.1,1.1-0.4,1.7-1.1c0.2-0.2,0.5-0.5,0.7-0.8c0.3-0.3,0.5-0.6,0.8-0.9c0.2-0.2,0.3-0.4,0.5-0.5c0.1-0.2,0.3-0.4,0.4-0.5
	c0.3-0.4,0.6-0.7,0.8-1c0.2-0.3,0.4-0.5,0.4-0.6c0.1-0.1,0.1-0.2,0.1-0.3c0-0.1,0-0.1-0.1-0.2l0-0.1l0-0.1l0-0.1l0-0.1l0,0l0,0
	c0-0.1-0.1-0.2-0.1-0.3c0-0.1,0-0.2,0.2-0.3c0.2-0.2,0.3-0.2,0.5-0.1c0.2,0.1,0.4,0.2,0.6,0.4l1.4,1.3c0.2,0.2,0.3,0.3,0.4,0.5
	c0.1,0.2,0.1,0.3-0.1,0.5c-0.1,0.2-0.3,0.2-0.4,0.2c-0.1,0-0.2-0.1-0.3-0.1l-0.1,0l-0.1,0c-0.1-0.1-0.3-0.1-0.4,0
	c-0.1,0-0.2,0.1-0.2,0.2c-0.2,0.2-0.4,0.5-0.7,0.8c-0.3,0.3-0.6,0.7-0.9,1.1c-0.3,0.3-0.6,0.7-0.8,1c-0.3,0.4-0.6,0.7-0.9,1.1
	c-0.1,0.1-0.2,0.2-0.2,0.3c-0.1,0.1-0.2,0.2-0.3,0.3c-0.8,0.8-1.7,1.3-2.6,1.4c-0.9,0.1-2-0.5-3.4-1.8c-1.3-1.2-1.9-2.3-2.1-3.2
	c-0.1-0.9,0-1.7,0.4-2.3l0.1-0.2l0.1-0.2c0.2-0.2,0.6-0.5,1-0.9c0.4-0.4,0.8-0.7,1.3-1.1l0.2-0.1l0.2-0.1c0.5-0.4,1-0.8,1.4-1.2
	c0.4-0.4,0.7-0.6,0.9-0.8l0.1-0.1l0.1-0.1c0-0.1,0-0.1,0-0.2c0-0.1,0-0.2,0-0.3l-0.1-0.2l0-0.2c0-0.1-0.1-0.2-0.1-0.3
	c0-0.1,0.1-0.2,0.2-0.3c0.2-0.2,0.3-0.2,0.5-0.1c0.2,0.1,0.4,0.2,0.6,0.5l2.2,2c0.3,0.3,0.5,0.5,0.5,0.7c0.1,0.1,0,0.3-0.1,0.5
	c-0.1,0.1-0.2,0.2-0.3,0.2c-0.1,0-0.2,0-0.3-0.1l-0.2-0.1c-0.1,0-0.1,0-0.2-0.1c-0.1-0.1-0.2-0.1-0.3,0c-0.1,0-0.2,0.1-0.3,0.1
	L139.3,31.2L139.3,31.2L139.3,31.2"/>
<path d="M150.9,44.8L150.9,44.8l0.2-0.2c0-0.1,0.1-0.1,0.1-0.2c0-0.1,0-0.2,0-0.2l0-0.1l0-0.1c0-0.2-0.1-0.3-0.1-0.4
	c0-0.1,0.1-0.3,0.2-0.4c0.2-0.1,0.3-0.2,0.5-0.1c0.1,0,0.4,0.3,0.7,0.7l1.1,1.5c0.3,0.4,0.4,0.7,0.4,0.8c0,0.1-0.1,0.3-0.3,0.4
	c-0.1,0.1-0.3,0.1-0.4,0.1c-0.1,0-0.3-0.1-0.4-0.2l-0.1-0.1l-0.1-0.1c-0.1,0-0.1-0.1-0.2-0.1c-0.1,0-0.2,0-0.2,0l-0.1,0.1l-0.1,0.1
	l-7.2,5.2c-0.1,0.1-0.2,0.1-0.3,0.1c-0.1,0-0.2-0.1-0.3-0.2l-0.6-0.8l0,0l0,0c0-0.1-0.1-0.2,0-0.3c0-0.1,0.1-0.2,0.2-0.2l0.6-0.4
	l0,0l0.1-0.1l0.1-0.1c0-0.1,0.1-0.2,0.1-0.3c0-0.1,0.1-0.3,0.1-0.6l1.6-8.1l-5,3.7l-0.1,0.1l-0.1,0.1c0,0.1-0.1,0.2-0.1,0.2
	c0,0.1,0,0.2,0,0.3l0,0.1l0,0.1c0,0.2,0.1,0.3,0.1,0.5c0,0.1-0.1,0.3-0.2,0.4c-0.2,0.1-0.3,0.2-0.5,0.1c-0.1,0-0.4-0.3-0.7-0.7
	l-1.1-1.5c-0.3-0.4-0.4-0.7-0.4-0.8c0-0.2,0.1-0.3,0.3-0.4c0.1-0.1,0.3-0.1,0.4-0.1c0.1,0,0.3,0.1,0.4,0.2l0.1,0.1l0.1,0.1
	c0.1,0,0.2,0.1,0.2,0.1c0.1,0,0.2,0,0.3,0l0.1,0l0.1-0.1l6-4.4l0.1-0.1l0.1-0.1c0-0.1,0.1-0.1,0.1-0.2c0-0.1,0-0.2,0-0.2l0-0.1
	l0-0.1c0-0.2-0.1-0.3-0.1-0.5c0-0.1,0.1-0.3,0.2-0.3c0.2-0.1,0.3-0.2,0.5-0.1c0.1,0,0.4,0.3,0.7,0.7l1.6,2.1
	c0.1,0.1,0.1,0.2,0.1,0.2c0,0.1,0,0.1,0,0.2l0,0.1l0,0.1l-0.9,6.6L150.9,44.8"/>
<path d="M149.1,56.4l7-3.3l-0.4-0.9c-0.2-0.5-0.5-0.9-0.9-1.1c-0.3-0.2-0.7-0.4-1-0.5c-0.2-0.1-0.5-0.2-0.7-0.2
	c-0.2-0.1-0.4-0.1-0.5-0.2l-0.1-0.1l-0.1-0.1c-0.1-0.1-0.1-0.2,0-0.4c0-0.1,0.1-0.2,0.3-0.3c0.1,0,0.2-0.1,0.2-0.1
	c0.1,0,0.2,0,0.3,0l2.6,0c0.2,0,0.3,0,0.4,0.1c0.1,0.1,0.2,0.2,0.3,0.3c0,0.1,0.1,0.2,0.1,0.2c0,0.1,0,0.1,0,0.2l0,0l0,0
	c0,0.1,0,0.2,0,0.3c0,0.1,0,0.2,0.1,0.3l2.8,6c0.1,0.1,0.1,0.2,0.2,0.3c0.1,0.1,0.2,0.1,0.2,0.2l0,0l0,0l0.2,0.1
	c0.1,0,0.1,0.1,0.1,0.2c0.1,0.2,0.1,0.3,0.1,0.4c0,0.1-0.1,0.3-0.2,0.4l-1.7,1.9c-0.1,0.1-0.2,0.2-0.2,0.2c-0.1,0.1-0.2,0.1-0.2,0.1
	c-0.1,0.1-0.2,0.1-0.3,0c-0.1,0-0.2-0.1-0.2-0.2l0-0.1l0-0.2c0-0.2,0.1-0.3,0.2-0.5c0.1-0.2,0.2-0.4,0.2-0.7
	c0.1-0.3,0.2-0.7,0.2-1.1c0-0.4-0.1-0.9-0.3-1.4l-0.4-0.9l-7,3.3l-0.1,0l0,0c-0.1,0.1-0.1,0.1-0.2,0.2c-0.1,0.1-0.1,0.2-0.1,0.3
	l0,0.1l0,0.1c0,0.2,0,0.3,0,0.4c0,0.1-0.1,0.2-0.2,0.3c-0.2,0.1-0.4,0.1-0.5,0c-0.1-0.1-0.3-0.3-0.5-0.8l-1.3-2.7
	c-0.2-0.5-0.3-0.8-0.3-0.9c0-0.2,0.2-0.3,0.3-0.4c0.1-0.1,0.3-0.1,0.4,0c0.1,0.1,0.2,0.1,0.4,0.3l0.1,0.1l0.1,0.1
	c0.1,0.1,0.1,0.1,0.2,0.1c0.1,0,0.2,0,0.3,0l0.1,0L149.1,56.4L149.1,56.4"/>
<path d="M157.3,71c-0.1,0-0.2,0-0.3,0l0,0l0,0l-2.8,0.7c-0.1,0-0.2,0.1-0.2,0.2c0,0.1-0.1,0.2-0.1,0.3l0,0.1l0,0
	c0,0.1-0.1,0.3-0.1,0.4c0,0.1-0.1,0.2-0.3,0.2c-0.2,0.1-0.4,0-0.5-0.1c-0.1-0.1-0.2-0.4-0.3-0.6l-0.7-3c-0.1-0.3-0.1-0.5-0.1-0.7
	c0-0.2,0.2-0.3,0.4-0.4c0.2,0,0.3,0,0.4,0.1c0.1,0.1,0.2,0.2,0.3,0.3l0,0.1l0,0.1c0.1,0.1,0.1,0.2,0.2,0.2c0.1,0.1,0.1,0.1,0.2,0.1
	l2.1-0.5l0.1,0l0.1,0c0.1,0,0.1-0.1,0.2-0.1c0.1,0,0.1-0.1,0.2-0.2l4.2-4.8c0-0.1,0.1-0.1,0.1-0.2c0-0.1,0.1-0.2,0.1-0.3v0l0,0
	c0-0.2,0.1-0.3,0.2-0.5c0.1-0.2,0.2-0.3,0.4-0.3c0.2-0.1,0.4,0,0.5,0.1c0.1,0.1,0.3,0.4,0.3,0.7l0.8,3.3c0.1,0.4,0.1,0.7,0,0.9
	c-0.1,0.2-0.2,0.3-0.4,0.3c-0.2,0-0.3,0-0.4,0c-0.1,0-0.2-0.1-0.2-0.1l-0.1,0l-0.1,0l-0.1-0.1l-0.1,0l-0.1,0l-0.1,0.1l-2.3,2.4
	l3.2,1.2l0.1,0l0.1,0l0.1-0.1l0.1-0.2l0-0.1l0-0.1c0-0.1,0.1-0.2,0.2-0.3c0.1-0.1,0.2-0.1,0.3-0.2c0.2,0,0.4,0,0.5,0.1
	c0.2,0.1,0.3,0.3,0.3,0.6l0.6,2.4c0.1,0.3,0,0.5,0,0.6c-0.1,0.1-0.2,0.2-0.4,0.3c-0.2,0-0.3,0-0.4-0.1c-0.1-0.1-0.2-0.2-0.3-0.3l0,0
	l0,0l-0.2-0.2l-0.2-0.1l-5.3-2.2C157.5,71.1,157.4,71,157.3,71"/>
<polyline points="87.7,92 83.4,94.2 85.1,89.2 80.8,86.1 86.1,86.1 87.7,82.1 89.3,86.1 94.6,86.1 90.3,89.2 92,94.2 87.7,92 "/>
<polyline points="87.7,69.7 83.4,71.9 85.1,67 80.8,63.9 86.1,63.9 87.7,59.9 89.3,63.9 94.6,63.9 90.3,67 92,71.9 87.7,69.7 "/>
<polyline points="87.7,111.6 83.4,113.8 85.1,108.9 80.8,105.8 86.1,105.8 87.7,101.8 89.3,105.8 94.6,105.8 90.3,108.9 92,113.8
	87.7,111.6 "/>
<polyline points="128.7,92 124.5,94.2 126.2,89.2 121.8,86.1 127.1,86.1 128.7,82.1 130.3,86.1 135.6,86.1 131.4,89.2 133,94.2
	128.7,92 "/>
<polyline points="109.1,92 104.8,94.2 106.5,89.2 102.2,86.1 107.5,86.1 109.1,82.1 110.7,86.1 116,86.1 111.7,89.2 113.4,94.2
	109.1,92 "/>
<polyline points="66.3,92 62.1,94.2 63.7,89.2 59.4,86.1 64.7,86.1 66.3,82.1 67.9,86.1 73.2,86.1 68.9,89.2 70.6,94.2 66.3,92 "/>
<polyline points="45.8,92 41.5,94.2 43.2,89.2 38.9,86.1 44.2,86.1 45.8,82.1 47.4,86.1 52.7,86.1 48.4,89.2 50.1,94.2 45.8,92 "/>
<polyline class="st2" points="78.7,119.5 77.6,119.5 77.6,97.6 78.7,97.6 78.7,119.5 "/>
<path class="st6" d="M24.9,97.5c3.9,27.4,25.9,49.1,53.8,53.1V97.5H24.9L24.9,97.5z"/>
<path d="M56.3,97.6v0.2c1.8,0.1,3.3,1.5,3.3,3.2c0,0.7-0.3,1.4-0.7,1.9c-0.1,0.3-0.1,0.5-0.1,0.7c0.2,0.4,0.5,0.5,0.8,0.6
	c0.6-0.5,1.4-0.9,2.4-0.9c1.9,0,3.5,1.4,3.5,3.2c0,1.4-1,2.6-2.3,3l-0.1,0.1c0,0-0.1,0-0.2,0c-0.3,0.1-0.6,0.1-0.9,0.1
	c-0.3,0-0.6-0.1-0.9-0.1c-0.1,0-0.3,0-0.4-0.1c-0.5-0.2-0.9-0.5-1.2-0.8c-0.9-0.5-1.3-0.3-1.3-0.3s0,8,0,8.4c0,0.4,0.5,1,0.9,1.1
	c0.4,0.1,9.3-0.1,9.3-0.1s-0.1-1-0.3-1.4c-0.1-0.1-0.2-0.2-0.3-0.4c-0.9-0.6-1.4-1.5-1.4-2.6c0-1.8,1.6-3.2,3.5-3.2
	c1.9,0,3.5,1.4,3.5,3.2c0,0.6-0.2,1.1-0.5,1.6l0,0c-0.2,0.5-0.6,0.5-0.6,1.2c0,0.7,0.4,0.8,0.8,0.9l0.2,0c0.5-0.3,1.1-0.4,1.7-0.4
	c1.9,0,3.5,1.4,3.5,3.2c0,0.1,0,0.3,0,0.4H56.3v0.2h22.4v-23H56.3z"/>
<path d="M35,120.4c0-0.1,0-0.3,0-0.4c0-1.8,1.5-3.2,3.3-3.2c0.6,0,1.2,0.2,1.6,0.4l0.2,0c0.4-0.1,0.7-0.3,0.7-0.9
	c0-0.6-0.4-0.7-0.6-1.2l0,0c-0.3-0.5-0.5-1-0.5-1.6c0-1.8,1.5-3.2,3.3-3.2c1.8,0,3.3,1.4,3.3,3.2c0,1.1-0.5,2-1.4,2.6
	c-0.1,0.1-0.2,0.2-0.2,0.4c-0.2,0.4-0.3,1.4-0.3,1.4s8.6,0.2,9,0.1c0.4-0.1,0.9-0.7,0.9-1.1s0-8.4,0-8.4s-0.4-0.2-1.3,0.3
	c-0.3,0.3-0.7,0.6-1.2,0.8c-0.1,0.1-0.2,0.1-0.3,0.1c-0.3,0.1-0.6,0.1-0.9,0.1c-0.3,0-0.6,0-0.8-0.1c-0.1,0-0.1,0-0.2,0l-0.1-0.1
	c-1.3-0.4-2.3-1.6-2.3-3c0-1.8,1.5-3.2,3.3-3.2c0.9,0,1.7,0.3,2.3,0.9c0.3,0,0.6-0.2,0.8-0.6c0.1-0.2,0-0.4-0.1-0.7
	c-0.4-0.5-0.6-1.2-0.6-1.9c0-1.7,1.4-3.2,3.2-3.2v22.7H35"/>
<g>
	<polygon points="56.5,141.3 56.5,141.4 56.5,141.4 	"/>
	<path d="M53.2,139c0-0.7,0.2-1.4,0.6-1.9c0.1-0.3,0.1-0.5,0.1-0.7c-0.2-0.4-0.5-0.5-0.8-0.6c-0.6,0.5-1.4,0.9-2.3,0.9
		c-1.9,0-3.4-1.4-3.4-3.2c0-1.4,1-2.6,2.3-3l0.1-0.1c0,0,0.1,0,0.2,0c0.3-0.1,0.5-0.1,0.8-0.1c0.3,0,0.6,0.1,0.9,0.1
		c0.1,0,0.2,0,0.4,0.1c0.5,0.2,0.9,0.5,1.2,0.8c0.9,0.5,1.3,0.3,1.3,0.3s0-8,0-8.4c0-0.4-0.5-1-0.9-1.1c-0.4-0.1-9.1,0.1-9.1,0.1
		s0.1,1,0.3,1.4c0.1,0.1,0.1,0.2,0.2,0.4c0.8,0.6,1.4,1.5,1.4,2.6c0,1.8-1.5,3.2-3.4,3.2c-1.9,0-3.4-1.4-3.4-3.2
		c0-0.6,0.2-1.1,0.5-1.6l0-0.1c0.2-0.5,0.6-0.5,0.6-1.2c0-0.7-0.3-0.8-0.8-0.9l-0.2,0c-0.5,0.3-1.1,0.4-1.7,0.4
		c-1.9,0-3.4-1.4-3.4-3.2c0-0.1,0-0.3,0-0.4h4.2l-0.8-0.2l-3.1,0.2h-2.6l2.9,4.7l1.5,2l1.6,2l1.1,1.1l-0.1,0.1l3.7,3.9l4.5,3.9
		l6.2,4.4l2.5,1.5l0-0.9C54.6,142.1,53.2,140.7,53.2,139z"/>
</g>
<path d="M78.4,119.5c0,0.1,0,0.3,0,0.4c0,1.8-1.5,3.2-3.5,3.2c-0.6,0-1.2-0.2-1.7-0.4l-0.2,0c-0.4,0.1-0.8,0.3-0.8,0.9
	c0,0.6,0.4,0.6,0.6,1.2l0,0c0.3,0.5,0.5,1,0.5,1.6c0,1.8-1.5,3.2-3.5,3.2c-1.9,0-3.5-1.4-3.5-3.2c0-1.1,0.6-2,1.4-2.6
	c0.1-0.1,0.2-0.2,0.3-0.4c0.2-0.4,0.3-1.4,0.3-1.4s-8.9-0.2-9.3-0.1c-0.4,0.1-0.9,0.7-0.9,1.1c0,0.4,0,8.4,0,8.4s0.4,0.2,1.3-0.3
	c0.3-0.3,0.8-0.6,1.2-0.8c0.1-0.1,0.2-0.1,0.4-0.1c0.3-0.1,0.6-0.1,0.9-0.1c0.3,0,0.6,0,0.9,0.1c0.1,0,0.1,0,0.2,0l0.1,0.1
	c1.4,0.4,2.3,1.6,2.3,3c0,1.8-1.5,3.2-3.5,3.2c-0.9,0-1.7-0.3-2.4-0.9c-0.3,0-0.6,0.2-0.8,0.6c-0.1,0.2,0,0.4,0.1,0.7
	c0.4,0.5,0.7,1.2,0.7,1.9c0,1.7-1.5,3.2-3.3,3.2v-22.7H78.4"/>
<path d="M36.9,147.4c-0.1,0-0.2-0.1-0.2-0.2c-0.1-0.1-0.1-0.1-0.2-0.2c0-0.1,0-0.2,0-0.3l1.9-6.9l-4.5,2.2l-0.1,0.1l-0.1,0
	c-0.1,0.1-0.1,0.1-0.1,0.2c0,0.1,0,0.2,0.1,0.3l0,0.1l0,0c0,0.1,0.1,0.2,0.1,0.4c0,0.1-0.1,0.2-0.2,0.3c-0.1,0.1-0.3,0.2-0.4,0.2
	c-0.2,0-0.4-0.1-0.5-0.3l-2.1-2.1l-0.1-0.1l-0.1-0.1c-0.1-0.1-0.2-0.3-0.2-0.4c0-0.1,0-0.3,0.2-0.4c0.2-0.2,0.3-0.2,0.4-0.2
	c0.1,0,0.3,0.1,0.4,0.2l0.1,0l0.1,0c0.1,0.1,0.2,0.1,0.4,0.1c0.1,0,0.3,0,0.4,0l7-3.4l0.1-0.1l0.1-0.1c0.1-0.1,0.1-0.2,0.1-0.3
	c0-0.1,0-0.2-0.1-0.4l0,0c0-0.1-0.1-0.3-0.1-0.4c0-0.1,0-0.3,0.2-0.4c0.2-0.2,0.4-0.2,0.6-0.2c0.2,0.1,0.5,0.2,0.8,0.5l2.2,2.1
	l0,0.1l0.1,0.1c0.2,0.2,0.3,0.4,0.4,0.7c0.1,0.2,0.1,0.4-0.1,0.6c-0.1,0.1-0.3,0.2-0.4,0.2c-0.1,0-0.2,0-0.4,0l-0.1,0l-0.1,0
	c-0.1,0-0.1,0-0.2,0l-0.2,0.1l0,0.1l-0.1,0.1l-1.4,4.9l4.9-1.3l0.1,0l0.1-0.1c0.1-0.1,0.1-0.2,0.1-0.3c0-0.1,0-0.2-0.1-0.3l0-0.1
	l0-0.1c0-0.1-0.1-0.3-0.1-0.4c0-0.1,0-0.3,0.1-0.4c0.2-0.2,0.3-0.2,0.5-0.2c0.2,0,0.5,0.2,0.9,0.6l2.1,2.1c0.4,0.4,0.6,0.7,0.6,0.9
	c0,0.2,0,0.4-0.2,0.5c-0.1,0.1-0.3,0.2-0.4,0.2c-0.1,0-0.3,0-0.4,0l-0.1,0l-0.1,0c-0.1,0-0.2-0.1-0.3-0.1c-0.1,0-0.2,0-0.3,0.1l0,0
	l0,0.1l-3.6,6.7c-0.1,0.1-0.1,0.3-0.1,0.4c0,0.1,0.1,0.3,0.1,0.4l0,0l0,0c0.1,0.1,0.1,0.3,0.2,0.4c0,0.1,0,0.3-0.2,0.4
	c-0.2,0.2-0.3,0.2-0.5,0.2c-0.2,0-0.5-0.3-0.9-0.7l-2.2-2.2c-0.4-0.4-0.7-0.8-0.8-0.9c-0.1-0.2,0-0.4,0.1-0.5
	c0.1-0.1,0.2-0.2,0.4-0.1c0.1,0,0.3,0.1,0.4,0.1l0.1,0l0.1,0c0.1,0,0.2,0.1,0.3,0.1c0.1,0,0.2,0,0.2,0c0.1-0.1,0.2-0.3,0.5-0.8
	c0.2-0.4,0.5-0.9,0.8-1.4l0-0.1l0.1-0.1c0.3-0.5,0.7-1.2,1.1-2.1l-7,1.7C37.1,147.4,37,147.4,36.9,147.4"/>
<path d="M58,148.7l1.9,0.9c0.1,0.1,0.2,0.1,0.2,0.2c0.1,0.1,0.1,0.2,0.1,0.3l0,0.2l0,0.1l-0.3,9.2c0,0.1,0,0.1,0,0.2l0,0.2
	c0,0.1,0,0.3,0.1,0.4c0,0.1,0.1,0.2,0.2,0.4l0,0l0,0c0.2,0.2,0.3,0.3,0.4,0.5c0.1,0.2,0.1,0.3,0,0.5c-0.1,0.2-0.2,0.3-0.4,0.3
	c-0.2,0-0.5-0.1-1-0.3l-3.4-1.6c-0.2-0.1-0.4-0.2-0.5-0.3c-0.1-0.1-0.2-0.3-0.1-0.5c0.1-0.1,0.1-0.2,0.2-0.2c0.1,0,0.2,0,0.3,0l0,0
	l0,0l0,0l0,0l0.1,0l0.1,0l0,0c0.1,0,0.2,0,0.3,0c0.1,0,0.1,0,0.2-0.1l0,0l0,0c0-0.1,0-0.2,0-0.3c0-0.1,0-0.3,0-0.4
	c0-0.3-0.1-0.5-0.1-0.8c-0.1-0.3-0.2-0.4-0.4-0.5l-3.1-1.5c-0.2-0.1-0.5-0.1-0.7,0c-0.2,0.1-0.5,0.2-0.7,0.4
	c-0.1,0.1-0.2,0.2-0.3,0.3c-0.1,0.1-0.2,0.2-0.2,0.2l0,0l0,0l0,0.2l0.1,0.2l0,0.1l0.1,0l0,0l0,0l0,0l0,0c0.1,0.1,0.1,0.2,0.2,0.3
	c0,0.1,0,0.2,0,0.3c-0.1,0.2-0.2,0.3-0.4,0.3c-0.2,0-0.4-0.1-0.6-0.2l-3-1.4c-0.3-0.1-0.5-0.3-0.6-0.4c-0.1-0.1-0.1-0.3,0-0.5
	c0.1-0.2,0.2-0.3,0.4-0.3c0.2,0,0.4,0,0.7,0l0.1,0l0.1,0c0.2,0,0.4,0,0.5,0c0.1-0.1,0.3-0.1,0.4-0.2l0.1-0.1l0.1-0.1l7.7-5.8
	l0.1-0.1l0.1-0.1c0.1-0.1,0.2-0.1,0.3-0.1C57.8,148.6,57.9,148.7,58,148.7L58,148.7L58,148.7z M56.2,155.2c0.2,0.1,0.4,0.1,0.5,0.1
	c0.1,0,0.1-0.1,0.2-0.2c0-0.1,0.1-0.1,0.1-0.2l0-0.2l0-0.1l0-0.1l0.1-3.1l-2.5,1.9l-0.1,0l0,0l-0.1,0.1c0,0-0.1,0.1-0.1,0.2
	c-0.1,0.1-0.1,0.2-0.1,0.3c0,0.1,0.1,0.2,0.4,0.3L56.2,155.2"/>
<path d="M73.5,161.5c0,0,0.1,0.2,0.3,0.5c0.2,0.3,0.4,0.6,0.6,1c0.2,0.3,0.4,0.6,0.6,0.9c0.2,0.3,0.3,0.4,0.3,0.5l0.2,0.2l0.2,0.1
	l0.1,0l0,0c0.1,0.1,0.2,0.2,0.4,0.3c0.1,0.1,0.1,0.2,0.1,0.4c0,0.2-0.1,0.3-0.3,0.4c-0.2,0.1-0.5,0-1.1-0.1l-3.4-0.8
	c-0.6-0.1-1-0.3-1.1-0.4c-0.1-0.1-0.1-0.3-0.1-0.5c0-0.2,0.1-0.3,0.2-0.3c0.1-0.1,0.3-0.1,0.4-0.1c0.1,0,0.2-0.1,0.3-0.1
	c0.1,0,0.2-0.1,0.2-0.1c0-0.1-0.1-0.2-0.2-0.4c-0.1-0.2-0.2-0.3-0.4-0.5l0-0.1l0,0c-0.2-0.2-0.4-0.6-0.7-1c-0.1,0-0.2,0-0.3,0
	c-0.1,0-0.2,0-0.4-0.1c-0.1,0-0.2,0-0.2-0.1c-0.1,0-0.2,0-0.3-0.1c-0.2-0.1-0.5-0.1-0.7-0.2c-0.2-0.1-0.4-0.2-0.5-0.2l-0.3,1.4
	c0,0.1,0,0.3,0.1,0.4c0.1,0.1,0.2,0.2,0.3,0.3l0,0l0,0l0.1,0.1l0.1,0.1c0.1,0.1,0.3,0.2,0.4,0.3c0.1,0.1,0.1,0.2,0.1,0.4
	c0,0.2-0.1,0.3-0.3,0.4c-0.2,0.1-0.5,0-1.1-0.1l-3.4-0.8c-0.6-0.1-0.9-0.3-1.1-0.4c-0.1-0.1-0.2-0.3-0.1-0.5c0-0.2,0.1-0.3,0.2-0.3
	c0.1-0.1,0.3-0.1,0.5-0.1l0.2,0l0.2,0c0.1,0,0.3-0.1,0.4-0.1c0.1-0.1,0.2-0.2,0.2-0.3l0,0l0,0l1.6-7.2l0-0.1l0-0.1
	c0-0.1,0-0.2-0.1-0.3c0-0.1-0.1-0.2-0.2-0.2l-0.1-0.1l-0.1-0.1c-0.2-0.1-0.3-0.2-0.4-0.3c-0.1-0.1-0.1-0.2-0.1-0.4
	c0-0.2,0.2-0.4,0.4-0.4c0.2-0.1,0.7,0,1.3,0.1l2.6,0.6c2.8,0.6,4.9,1.5,6.4,2.6c1.5,1.1,2.1,2.4,1.7,3.9c-0.2,0.9-0.6,1.4-1.3,1.7
	C75.1,161.4,74.3,161.5,73.5,161.5L73.5,161.5L73.5,161.5z M68.9,154.9l-0.8,3.7c-0.1,0.3,0,0.6,0.3,0.8c0.3,0.2,0.7,0.3,1.2,0.4
	c0.2,0,0.4,0.1,0.6,0.1c0.2,0,0.5,0,0.7,0c0.5,0,0.9-0.2,1.4-0.4c0.5-0.3,0.8-0.8,0.9-1.5c0.2-0.9,0.1-1.5-0.3-2
	c-0.4-0.5-0.8-0.8-1.4-1c-0.2-0.1-0.4-0.2-0.6-0.2c-0.2-0.1-0.4-0.1-0.6-0.1c-0.5-0.1-0.9-0.2-1.1-0.2
	C69.1,154.5,68.9,154.6,68.9,154.9L68.9,154.9"/>
<path d="M87.1,161.8c0,0.1-0.1,0.2-0.1,0.2l0,0.1l0,0.1l-0.1,2.9c0,0.1,0,0.2,0.1,0.2c0.1,0.1,0.2,0.1,0.3,0.2l0.1,0l0.1,0
	c0.1,0.1,0.3,0.1,0.4,0.2c0.1,0.1,0.2,0.2,0.2,0.3c0,0.2-0.1,0.4-0.3,0.5c-0.2,0.1-0.5,0.1-0.8,0.1l-3.6-0.2c-0.3,0-0.6-0.1-0.8-0.1
	c-0.2-0.1-0.3-0.2-0.3-0.5c0-0.2,0.1-0.3,0.2-0.3c0.1-0.1,0.3-0.1,0.5-0.2l0.1,0l0.1,0c0.1,0,0.2-0.1,0.3-0.1c0.1,0,0.2-0.1,0.2-0.2
	l0.1-2.2l0-0.1l0-0.1c0-0.1,0-0.1-0.1-0.2c0-0.1-0.1-0.2-0.2-0.3l-4.1-5.4c-0.1-0.1-0.1-0.1-0.2-0.2c-0.1-0.1-0.2-0.1-0.3-0.2l0,0
	l0,0c-0.2-0.1-0.4-0.2-0.5-0.3c-0.2-0.1-0.2-0.3-0.2-0.5c0-0.2,0.1-0.4,0.3-0.5c0.2-0.1,0.5-0.1,0.9-0.1l4,0.1c0.5,0,0.8,0.1,1,0.3
	c0.2,0.1,0.2,0.3,0.2,0.5c0,0.2,0,0.3-0.1,0.4c-0.1,0.1-0.1,0.1-0.2,0.2l-0.1,0.1l-0.1,0l-0.1,0.1l0,0.1l0,0.1l0.1,0.1l2.1,2.9
	l2.4-2.8l0.1-0.1l0-0.1l-0.1-0.1l-0.2-0.1l-0.1-0.1l-0.1,0c-0.1-0.1-0.2-0.1-0.2-0.2c-0.1-0.1-0.1-0.2-0.1-0.3
	c0-0.2,0.1-0.4,0.3-0.5c0.2-0.1,0.5-0.2,0.8-0.1l2.9,0.1c0.3,0,0.6,0.1,0.7,0.2c0.1,0.1,0.2,0.3,0.2,0.5c0,0.2-0.1,0.3-0.2,0.4
	c-0.1,0.1-0.3,0.1-0.4,0.2l0,0l0,0c-0.1,0-0.2,0.1-0.3,0.1c-0.1,0-0.2,0.1-0.2,0.1l-4.2,4.4C87.2,161.6,87.1,161.7,87.1,161.8"/>
<path d="M97.2,156.8l0.9,7c0,0.3,0.1,0.5,0.3,0.6c0.2,0.1,0.4,0.1,0.6,0.1l0.9-0.1c0.7-0.1,1.4-0.2,1.9-0.5c0.5-0.3,1-0.5,1.4-0.8
	c0.4-0.3,0.7-0.5,1-0.7c0.3-0.2,0.5-0.3,0.7-0.4c0.2,0,0.3,0,0.4,0.1c0.1,0.1,0.2,0.2,0.2,0.3c0,0.1,0,0.2,0,0.3
	c0,0.1-0.1,0.2-0.1,0.3l-1.5,2.4c-0.1,0.1-0.2,0.3-0.3,0.4c-0.1,0.1-0.3,0.2-0.5,0.2c-0.1,0-0.1,0-0.2,0c-0.1,0-0.1,0-0.2-0.1
	l-0.1,0l-0.1,0c-0.1,0-0.2-0.1-0.3-0.1c-0.1,0-0.3,0-0.5,0l-7,0.9c-0.5,0.1-0.8,0-0.9-0.1c-0.1-0.1-0.2-0.3-0.2-0.5
	c0-0.2,0-0.4,0.2-0.5c0.2-0.1,0.4-0.2,0.7-0.3c0.1,0,0.2-0.1,0.3-0.2c0-0.1,0.1-0.2,0.1-0.3l0-0.1l0-0.1l-0.9-7.3l0-0.1l0-0.1
	c0-0.1-0.1-0.2-0.2-0.2c-0.1-0.1-0.2-0.1-0.3-0.1l-0.2,0l-0.2,0c-0.2,0-0.3-0.1-0.5-0.2c-0.1-0.1-0.2-0.2-0.2-0.3
	c0-0.2,0-0.4,0.1-0.5c0.1-0.1,0.5-0.2,1.1-0.3L97,155c0.6-0.1,0.9-0.1,1.1,0c0.1,0.1,0.2,0.2,0.3,0.5c0,0.1,0,0.3-0.1,0.4
	c-0.1,0.1-0.2,0.2-0.4,0.3l-0.2,0.1l-0.2,0.1c-0.1,0-0.2,0.1-0.2,0.2c0,0.1-0.1,0.1-0.1,0.2l0,0.1L97.2,156.8L97.2,156.8"/>
<path d="M110.9,152.2l2.1-0.6c0.1,0,0.2,0,0.3,0c0.1,0,0.2,0.1,0.3,0.2l0.1,0.1l0.1,0.1l6,7l0.1,0.1l0.1,0.1
	c0.1,0.1,0.2,0.2,0.3,0.2c0.1,0.1,0.3,0.1,0.4,0.1l0,0l0.1,0c0.2,0,0.4,0,0.6,0.1c0.2,0,0.3,0.2,0.4,0.3c0.1,0.2,0,0.3-0.1,0.5
	c-0.1,0.1-0.5,0.3-1,0.5l-3.6,1.1c-0.2,0.1-0.4,0.1-0.6,0.1c-0.2,0-0.3-0.1-0.4-0.3c0-0.1,0-0.2,0-0.3c0.1-0.1,0.1-0.2,0.2-0.2l0,0
	l0,0l0,0l0,0l0,0l0,0l0,0c0.1-0.1,0.1-0.1,0.2-0.2c0.1-0.1,0.1-0.1,0-0.2l0,0l0,0c-0.1-0.1-0.1-0.2-0.2-0.3
	c-0.1-0.1-0.2-0.2-0.3-0.3c-0.2-0.2-0.4-0.3-0.6-0.5c-0.2-0.1-0.4-0.2-0.6-0.1l-3.3,1c-0.2,0.1-0.4,0.2-0.5,0.5
	c-0.1,0.2-0.2,0.5-0.2,0.8c0,0.1,0,0.3,0,0.4c0,0.1,0,0.2,0,0.3l0,0l0,0c0,0.1,0.1,0.1,0.1,0.1c0.1,0,0.2,0,0.2,0l0.1,0l0.1,0l0,0
	l0,0l0,0l0,0c0.1,0,0.2,0,0.3,0.1c0.1,0,0.2,0.1,0.2,0.3c0.1,0.2,0,0.4-0.1,0.5c-0.1,0.1-0.3,0.2-0.6,0.3l-3.1,1
	c-0.3,0.1-0.5,0.1-0.7,0.1c-0.1,0-0.2-0.2-0.3-0.4c-0.1-0.2,0-0.3,0.1-0.5c0.1-0.1,0.3-0.3,0.5-0.4l0.1,0l0.1,0
	c0.2-0.1,0.3-0.2,0.4-0.4c0.1-0.1,0.1-0.3,0.2-0.5l0-0.1l0-0.1l1.7-9.4l0-0.1l0.1-0.2c0-0.1,0.1-0.2,0.1-0.3
	C110.7,152.3,110.8,152.3,110.9,152.2L110.9,152.2L110.9,152.2z M113.9,158.2c0.2-0.1,0.4-0.2,0.4-0.2c0-0.1,0-0.2,0-0.3
	c0-0.1-0.1-0.1-0.1-0.2l-0.1-0.1l0,0l0,0l-2.1-2.3l-0.5,3.1l0,0.1l0,0l0,0.2c0,0.1,0,0.1,0,0.2c0,0.1,0.1,0.2,0.2,0.3
	c0.1,0.1,0.2,0,0.5,0L113.9,158.2"/>
<path d="M128.2,146.2L128.2,146.2l-0.2-0.2c-0.1,0-0.1-0.1-0.2-0.1c-0.1,0-0.2,0-0.3,0l-0.1,0l-0.1,0c-0.2,0-0.4,0.1-0.5,0.1
	c-0.2,0-0.3-0.1-0.4-0.2c-0.1-0.2-0.1-0.3-0.1-0.5c0.1-0.2,0.4-0.4,0.9-0.7l1.9-1.1c0.5-0.3,0.9-0.4,1-0.4c0.2,0,0.3,0.1,0.4,0.3
	c0.1,0.1,0.1,0.3,0,0.4c-0.1,0.1-0.2,0.3-0.3,0.4l-0.1,0.1l-0.1,0.1c0,0.1-0.1,0.1-0.1,0.2c0,0.1,0,0.2,0,0.2l0,0.1l0.1,0.1l4.6,7.6
	c0.1,0.1,0.1,0.2,0.1,0.3c0,0.1-0.1,0.2-0.2,0.3l-1,0.6l0,0l0,0c-0.1,0-0.2,0.1-0.3,0c-0.1,0-0.2-0.1-0.3-0.2l-0.4-0.6l0,0l-0.1-0.1
	l-0.1-0.1c-0.1-0.1-0.2-0.1-0.3-0.1c-0.1,0-0.3-0.1-0.6-0.1l-8.8-1.8l3.2,5.3l0.1,0.1l0.1,0.1c0.1,0,0.2,0.1,0.2,0.1
	c0.1,0,0.2,0,0.3,0l0.1,0l0.1,0c0.2,0,0.4-0.1,0.5-0.1c0.2,0,0.3,0.1,0.4,0.2c0.1,0.2,0.1,0.3,0.1,0.5c-0.1,0.2-0.4,0.4-0.9,0.7
	l-1.9,1.1c-0.5,0.3-0.8,0.5-1,0.4c-0.2,0-0.3-0.1-0.4-0.3c-0.1-0.2-0.1-0.3,0-0.4c0.1-0.1,0.2-0.3,0.3-0.4l0.1-0.1l0.1-0.1
	c0.1-0.1,0.1-0.2,0.1-0.3c0-0.1,0-0.2,0-0.3l0-0.1l0-0.1l-3.8-6.4l-0.1-0.1l-0.1-0.1c-0.1,0-0.1-0.1-0.2-0.1c-0.1,0-0.2,0-0.3,0
	l-0.1,0l-0.1,0c-0.2,0-0.4,0.1-0.5,0.1c-0.2,0-0.3-0.1-0.4-0.2c-0.1-0.2-0.1-0.3-0.1-0.5c0.1-0.2,0.4-0.4,0.9-0.7l2.7-1.6
	c0.1-0.1,0.2-0.1,0.3-0.1c0.1,0,0.1,0,0.2,0l0.1,0l0.1,0l7.2,1.1L128.2,146.2"/>
<path d="M143.2,137.2c1.5,1.4,2.1,2.8,1.7,4.4c-0.4,1.5-1.3,3.1-2.6,4.6l-3.4,3.9c-0.4,0.4-0.7,0.7-0.8,0.7c-0.2,0-0.3,0-0.5-0.1
	c-0.1-0.1-0.2-0.2-0.2-0.4c0-0.1,0.1-0.3,0.1-0.5l0.1-0.1l0.1-0.1c0-0.1,0.1-0.2,0.1-0.3c0-0.1,0-0.2-0.1-0.3l0-0.1l-0.1-0.1
	l-5.7-5.1l-0.1-0.1c-0.1,0-0.1,0-0.2,0l-0.1,0l-0.1,0.1l-0.1,0l-0.1,0c-0.2,0.1-0.4,0.2-0.5,0.3c-0.2,0.1-0.3,0-0.4-0.1
	c-0.2-0.1-0.2-0.3-0.2-0.5c0-0.2,0.2-0.5,0.6-0.8l1.2-1.4c2.6-3,4.9-4.6,6.9-5C140.5,135.8,142.1,136.2,143.2,137.2L143.2,137.2
	L143.2,137.2z M141.9,142.6c-0.1-1-0.5-1.8-1.3-2.5c-0.8-0.7-1.8-1.1-3-1.1c-1.2,0-2.1,0.4-2.8,1.1c-0.4,0.4-0.6,0.7-0.7,0.9
	c0,0.1,0,0.2,0.1,0.3l0,0l0.1,0.1l5.2,4.6c0.3,0.2,0.4,0.3,0.5,0.3c0.1-0.1,0.3-0.3,0.7-0.6l0,0l0.1-0.1
	C141.6,144.6,142,143.6,141.9,142.6"/>
</svg>
